. 
 
 
http://www.torrentday.com :  Your Key To The Scene.


Now TvTeam with [No-RAR] Releases.



(((((((((((((= Enjoy No RAR releases =))))))))))))))))))))



...................................NFO:....................................

.      *********** ****    ****      ***      ******** *********** ****    *** **********
           *+*     +*+*+* *+*+*+   *+* *+*   *+*    *+*    *+*     *+*+*   *+* *+*        
           +*+     +*+ +*+*+ +*+  +*+   +*+  +*+           +*+     *+*+*+  +*+ +*+        
           +$+     +$+  +*+  +$+ +$++*++$++* *$*           +$+     +$+ +*+ +$+ +$++*++$  
           +$+     +$+       +$+ +$+     +$+ +$+   +$+$    +$+     +$+  +$+$+$ +$+        
           $+$     $+$       $+$ $+$     $+$ $+$    $+$    $+$     $+$   $+$+$ $+$        
       $$$$$$$$$$$ $$$       $$$ $$$     $$$  $$$$$$$$ $$$$$$$$$$$ $$$    $$$$ $$$$$$$$$$     
                                                



                           Another Fine Release Brought to you from - IMAGiNE                   
                                                 

********************************************************************************************************************                                
                               Sex and the City 2 CAM XViD - IMAGiNE
********************************************************************************************************************

Ripper ...........:IMAGiNE                                      IMDB Rating.......:3.7/10                             
Video Codec.......:XVID                                         Release Date......:06/11/10
Audio Codec.......:MP3                                          Theatre Date......:05/27/10
Audio Bitrate.....:128                                          Runtime...........:2h 16mn
Subtitles.........:NIL                                          Language..........:ENGLISH
Resolution........:672 x 336                                    IMDb URL..........:http://www.imdb.com/title/tt1261945/


[color=yellow]DETAILS:[/color]

Video
Format                           : MPEG-4 Visual
Format profile                   : Streaming Video@L1
Format settings, BVOP            : Yes
Format settings, QPel            : No
Format settings, GMC             : No warppoints
Format settings, Matrix          : Default
Muxing mode                      : Packed bitstream
Codec ID                         : XVID
Codec ID/Hint                    : XviD
Duration                         : 2h 16mn
Bit rate                         : 1 290 Kbps
Width                            : 672 pixels
Height                           : 336 pixels
Display aspect ratio             : 2.000
Frame rate                       : 25.000 fps
Resolution                       : 24 bits
Colorimetry                      : 4:2:0
Scan type                        : Progressive
Bits/(Pixel*Frame)               : 0.229
Stream size                      : 1.23 GiB (90%)
Writing library                  : XviD 50

Audio
Format                           : MPEG Audio
Format version                   : Version 1
Format profile                   : Layer 3
Codec ID                         : 55
Codec ID/Hint                    : MP3
Duration                         : 2h 16mn
Bit rate mode                    : Constant
Bit rate                         : 128 Kbps
Minimum bit rate                 : 128 Kbps
Channel(s)                       : 2 channels
Sampling rate                    : 44.1 KHz
Resolution                       : 16 bits
Stream size                      : 125 MiB (9%)
Alignment                        : Split accross interleaves
Interleave, duration             : 40 ms (1.00 video frame)
Interleave, preload duration     : 500 ms


[color=yellow]NOTES:[/color]

IMAGiNE bringing you another release.....Sex and the City 2

Right first off thanks to the sources on this... We used the video from 
relizlab and some CAM audio that a friend sent us Thanks Both... :)
This video is not the best, but we tried to change a few things in it. We played with the
rgb, contrast and a sharpening filter amoung a few other things. The audio is more then
good enough to hear it, but like always there is a sample included to judge your self.
Should do until a better video source comes along.

Cheers...


[color=yellow]SCREENS:[/color]



[color=yellow]GREETS:[/color]

FLAWL3SS,ViSiON,FUSiON,Rx,SecretMyth,BirdFlu,ELEKTRI4KA and Autotron
And to all the other p2p grps past and present 

Special thanks to Python-Lair for the server :)
And special thanks to supreme-speeds.com for the ripbox :)
Also to The Scene Nation for all their help :)
Last but not least thanks to 66Butch for his help :)

[COLOR=RED]Looking for these,syncers,cammers,silver supplier.....Have anything to offer????......
Contact us imaginegroup@hushmail.com[/COLOR]